/* XPM */
static char const* sample_xpm[] = {
"64 64 51 1",
" 	c None",
".	c #008000",
"+	c #007F00",
"@	c #007900",
"#	c #007D00",
"$	c #6BB56B",
"%	c #FDFEFD",
"&	c #54AA54",
"*	c #FFFFFF",
"=	c #007A00",
"-	c #F0F7F0",
";	c #309830",
">	c #2F982F",
",	c #69B469",
"'	c #68B468",
")	c #7EBF7E",
"!	c #80C080",
"~	c #018001",
"{	c #0B850B",
"]	c #72B872",
"^	c #7CBE7C",
"/	c #3A9D3A",
"(	c #71B871",
"_	c #FEFEFE",
":	c #E4F2E4",
"<	c #359A35",
"[	c #007E00",
"}	c #E5F2E5",
"|	c #68B368",
"1	c #6FB76F",
"2	c #7BBD7B",
"3	c #399D39",
"4	c #349A34",
"5	c #70B870",
"6	c #67B367",
"7	c #6DB66D",
"8	c #71B971",
"9	c #79BC79",
"0	c #D8EBD8",
"a	c #D7EBD7",
"b	c #7ABD7A",
"c	c #D5EAD5",
"d	c #D6EBD6",
"e	c #55AA55",
"f	c #6AB56A",
"g	c #FCFEFC",
"h	c #6AB46A",
"i	c #53A953",
"j	c #2F972F",
"k	c #6EB76E",
"l	c #7DBF7D",
"        ................................................        ",
"     ......................................................     ",
"    ........................................................    ",
"   ...........................+@@+...........................   ",
"  ...........................#$%%$#...........................  ",
" ............................&****&............................ ",
" ...........................=-****-=........................... ",
" ...........................;******>........................... ",
"............................,******'............................",
"............................)******)............................",
"............................!******!............................",
"...........~{]^/=...........!******!...........=/^({~...........",
"...........{_***:<[.........!******!.........[<}***_{...........",
"...........(******|#........!******!........#'******(...........",
"...........^*******(#.......!******!.......#1*******2...........",
".........../********(#......!******!......#1********3...........",
"...........=:********(#.....!******!.....#1********:=...........",
"............4*********5#....!******!....#1*********<............",
"............[6*********(#...!******!...#1*********'[............",
".............#7*********8#..!******!..#1*********1#.............",
"..............#7*********8#.!******!.#1*********1#..............",
"...............#7*********8#!******!#1*********1#...............",
"................#7*********89******91*********1#................",
".................#7*********0******a*********1#.................",
"..................#7************************1#..................",
"...................#7**********************1#...................",
"....................#7********************1#....................",
".....................#7******************1#.....................",
"......=;,)!!!!!!!!!!!!bc****************d9!!!!!!!!!!!!),;=......",
"....#e-**************************************************-&#....",
"...+$******************************************************f+...",
"...@%******************************************************%@...",
"...@%******************************************************g@...",
"...+f******************************************************h+...",
"....#&-**************************************************-i#....",
"......=>')!!!!!!!!!!!!9a****************09!!!!!!!!!!!!)'j=......",
".....................#1******************8#.....................",
"....................#1********************8#....................",
"...................#1**********************8#...................",
"..................#1************************8#..................",
".................#1*********d******c*********8#.................",
"................#1*********19******b7*********8#................",
"...............#1*********1#!******!#7*********8#...............",
"..............#1*********1#.!******!.#7*********8#..............",
".............#1*********1#..!******!..#7*********8#.............",
"............[|*********1#...!******!...#7*********,[............",
"............4*********1#....!******!....#k*********<............",
"...........=}********1#.....!******!.....#k********}=...........",
".........../********1#......!******!......#k********/...........",
"...........^*******1#.......!******!.......#k*******2...........",
"...........(******|#........!******!........#6******5...........",
"...........{_***:4[.........!******!.........[<:***_{...........",
"...........~{523=...........!******!...........=32({~...........",
"............................!******!............................",
"............................)******l............................",
"............................,******'............................",
" ...........................;******j........................... ",
" ...........................=-****-=........................... ",
" ............................&****&............................ ",
"  ...........................#f%gh#...........................  ",
"   ...........................+@@+...........................   ",
"    ........................................................    ",
"     ......................................................     ",
"        ................................................        "};
